<svg width="18" height="17" viewBox="0 0 18 17" fill="none" xmlns="http://www.w3.org/2000/svg">
<path d="M9.09408 1C6.11246 1.3667 6.46032 3.80115 7.00695 4.97254C4.97945 2.28344 3.18054 3.44464 2.53453 4.36138C1.34188 6.68379 3.23024 7.97741 4.32349 8.33392C2.91577 8.05647 2.06928 8.39831 1.58318 8.97345C0.491252 10.2654 1.18792 12.7073 2.84512 13.0465C3.74654 13.2311 4.67947 12.8369 5.21798 12.4593C4.96917 12.7483 4.78092 13.0307 4.6436 13.3046C3.43474 15.7154 8.35157 18.0737 9.0484 15.4684C9.15882 15.0555 9.15395 14.6302 9.09408 14.2927C9.36642 15.5767 9.96006 16.2296 10.6052 16.531C11.8811 17.1271 13.625 16.296 13.8565 14.9069C14.025 13.8954 13.5264 12.8449 12.9702 12.3065C13.8061 12.949 14.5017 13.1725 15.0697 13.1412C16.902 13.0405 17.437 10.0532 15.9802 8.93736C15.2743 8.39666 14.351 8.25252 13.7156 8.33392C16.4587 6.62268 15.4549 4.66696 14.6101 3.90301C12.8211 2.55846 11.4794 4.0558 11.0321 4.97254C11.867 1.79451 10.0879 1 9.09408 1Z" fill="white" stroke="black" stroke-width="0.5" stroke-linejoin="round"/>
<path d="M5.81427 9.70904C5.31995 6.50044 9.83945 4.36138 12.0757 7.72277C14.3119 12.3065 6.70875 15.5151 5.81427 9.70904Z" fill="#FFA100" stroke="black" stroke-width="0.5"/>
<path d="M7.30508 9.25067C7.25538 9.91276 7.30508 11.0842 8.94497 11.0842C9.98853 11.0842 11.0023 10.9619 10.883 9.25067" stroke="black" stroke-width="0.5" stroke-linecap="round"/>
<rect x="8.27413" y="7.79732" width="0.149081" height="0.76766" rx="0.0745404" fill="black" stroke="black" stroke-width="0.149081"/>
<rect x="9.76491" y="7.79732" width="0.149081" height="0.76766" rx="0.0745404" fill="black" stroke="black" stroke-width="0.149081"/>
</svg>
