<svg width="131" height="28" viewBox="0 0 131 28" fill="none" xmlns="http://www.w3.org/2000/svg">
<path d="M0.158691 27.203C3.06958 27.203 6.36166 23.7376 6.36166 19.4752V11.3663C6.36166 7.10396 3.06958 3.98515 0.158691 3.98515V3.46534H20.8122L22.3023 14.9703H21.7825C20.8815 12.2673 18.8716 4.15841 13.3963 4.15841C10.1389 4.15841 7.43592 7.10396 7.43592 11.3663V15.0049H9.82701C13.6735 15.0049 15.4062 11.5396 15.4062 8.62871H15.926V22.0743H15.4062C15.4062 19.1634 13.6735 15.6634 9.82701 15.6634H7.43592V19.4752C7.43592 23.7376 10.6933 27.203 13.6042 27.203V27.7228H0.158691V27.203Z" fill="#B22427"/>
<path d="M29.1615 27.7228C26.2506 27.7228 24.6219 27.0297 24.6219 21.4851C24.6219 18.2624 25.7654 11.4356 25.7654 7.03465C25.7654 2.18317 24.2407 0 25.4882 0C26.1813 0 29.0229 1.42079 29.0229 3.53465C29.0229 9.21782 25.6615 13.4802 25.6615 19.5446C25.6615 26.4406 29.7874 26.9604 31.5201 27.2896L35.6352 27.7228H29.1615Z" fill="#B22427"/>
<path d="M39.841 28C34.6083 28 30.3113 23.4604 30.3113 17.9851C30.3113 12.5099 34.6083 8.0396 39.841 8.0396C45.0736 8.0396 49.3707 12.5099 49.3707 17.9851C49.3707 23.4604 45.0736 28 39.841 28ZM33.2915 15.8713C33.2915 21.3812 36.7568 26.9604 41.0885 26.9604C43.7915 26.9604 46.3558 24.7772 46.3558 20.1337C46.3558 14.7624 42.9598 9.07921 38.4202 9.07921C35.5439 9.07921 33.2915 11.401 33.2915 15.8713Z" fill="#B22427"/>
<path d="M49.6766 27.203C53.0726 27.203 54.0429 23.4604 54.0429 19.7178C54.0429 13.7574 51.6172 13.4802 51.6172 10.8812C51.6172 9.0099 52.8994 8.0396 53.9043 8.0396C54.8746 8.0396 55.3598 8.94059 55.3598 10.7772C55.3598 11.8168 55.1865 13.2376 54.9439 15.9059C55.4984 13.2376 57.9934 8.07426 61.84 8.07426C64.1964 8.07426 65.6518 10.0148 65.6518 12.3366C65.6518 13.4109 65.3746 14.4505 64.8202 15.4901C64.8202 15.4901 63.538 11.0198 60.5578 11.0198C57.6815 11.0198 54.7013 15.1782 54.7013 20.4109C54.7013 24.5 56.434 27.203 59.033 27.203V27.7228H49.6766V27.203Z" fill="#B22427"/>
<path d="M76.3162 28C71.43 28 67.029 24.5347 67.029 18.4703C67.029 11.8861 71.1181 8.0396 76.3508 8.0396C80.232 8.0396 82.6231 10.1881 82.6231 12.9604C82.6231 16.2871 79.2271 20.099 72.7122 20.099C71.8459 20.099 71.1875 20.0297 70.633 19.8911C71.5686 23.9455 74.0983 26.8564 77.3211 26.8564C80.0587 26.8564 82.3805 24.7079 82.9003 20.6535H84.1132C83.5241 25.4703 80.1974 28 76.3162 28ZM70.2865 16.0792C70.2865 17.0149 70.3558 17.9851 70.4251 18.8515C71.0488 19.0941 71.8112 19.198 72.6429 19.198C75.8657 19.198 78.9152 17.7079 78.9152 13.4109C78.9152 10.7426 77.737 9.0099 75.0686 9.0099C71.9152 9.0099 70.2865 11.4703 70.2865 16.0792Z" fill="#B22427"/>
<path d="M84.085 27.203C86.8573 27.203 88.3474 24.4307 88.3474 19.7525C88.3474 18.3663 88.2435 16.9455 88.0009 15.802C87.585 13.8267 86.9959 11.8168 86.9959 10.2921C86.9959 8.87129 87.793 8.0396 88.7633 8.0396C89.7335 8.0396 90.5306 8.90594 90.5306 10.2574C90.5306 11.8168 89.8375 13.8267 89.5256 15.802C89.3524 16.9455 89.1791 18.3663 89.1791 19.7525C89.1791 24.4307 90.6692 27.203 93.4415 27.203V27.7228H84.085V27.203ZM86.9613 3.29208C86.9613 2.35643 87.793 1.5594 88.7286 1.5594C89.7336 1.5594 90.5306 2.35643 90.5306 3.29208C90.5306 4.29703 89.7336 5.09406 88.7286 5.09406C87.793 5.09406 86.9613 4.29703 86.9613 3.29208Z" fill="#B22427"/>
<path d="M103.463 28C98.2299 28 93.9329 23.4604 93.9329 17.9851C93.9329 12.5099 98.2299 8.0396 103.463 8.0396C108.695 8.0396 112.992 12.5099 112.992 17.9851C112.992 23.4604 108.695 28 103.463 28ZM96.913 15.8713C96.913 21.3812 100.378 26.9604 104.71 26.9604C107.413 26.9604 109.977 24.7772 109.977 20.1337C109.977 14.7624 106.581 9.07921 102.042 9.07921C99.1655 9.07921 96.913 11.401 96.913 15.8713Z" fill="#B22427"/>
<path d="M122.975 28C119.024 28 115.49 26.1287 115.49 22.4901C115.49 21.1386 115.975 20.1337 116.495 19.5446C117.222 23.6683 122.628 24.9505 125.851 24.9505C128.346 24.9505 130.252 24.1881 130.252 22.2822C130.252 16.9802 115.628 18.3317 115.628 12.8218C115.628 10.0148 119.302 8.0396 123.01 8.0396C126.683 8.0396 130.46 10.0495 130.46 13.6188C130.46 14.901 129.94 15.9059 129.455 16.5297C127.896 12.4752 123.841 11.0198 120.549 11.0198C119.094 11.0198 116.46 11.297 116.46 13.099C116.46 17.3267 130.841 16.0446 130.841 22.3515C130.841 25.297 127.757 28 122.975 28Z" fill="#B22427"/>
</svg>
